<svg width="242" height="48" viewBox="0 0 242 48" fill="none" xmlns="http://www.w3.org/2000/svg">
<g id="Logo">
<path id="dappy" fill-rule="evenodd" clip-rule="evenodd" d="M57.7589 30.5844V9.73418H61.2509C62.6967 9.73418 64.0589 9.99172 65.3376 10.5068C66.6162 11.0219 67.7323 11.7452 68.6842 12.6761C69.6366 13.6071 70.3904 14.7094 70.9461 15.9836C71.5014 17.2583 71.7795 18.6545 71.7795 20.1728C71.7795 21.6006 71.5368 22.9205 71.052 24.1314C70.5667 25.3427 69.8965 26.3952 69.0413 27.2904C68.1857 28.185 67.1852 28.9078 66.0387 29.4592C64.8923 30.0106 63.6582 30.3403 62.3355 30.4488C61.9474 30.4852 61.5589 30.5163 61.1713 30.5439C60.7833 30.5709 60.3866 30.5844 59.9808 30.5844H57.7589ZM81.2511 25.6629C81.7273 23.937 81.9654 22.1161 81.9654 20.1996C81.9654 18.3018 81.7228 16.485 81.238 14.7498C80.7526 13.0145 80.0738 11.3971 79.2009 9.89651C78.3281 8.39646 77.2738 7.04075 76.0398 5.82939C74.8052 4.61855 73.443 3.57905 71.9526 2.71142C70.4621 1.84378 68.8578 1.17554 67.1379 0.705114C65.4185 0.235211 63.6327 0 61.7811 0H48.7393C48.3335 0 48.0295 0.117865 47.8269 0.352557C47.6238 0.587768 47.5229 0.895152 47.5229 1.27471V39.152C47.5229 39.6224 47.6461 39.9293 47.8928 40.0736C48.14 40.2185 48.4222 40.2907 48.7393 40.2907H61.7811C63.6327 40.2907 65.4225 40.0601 67.1515 39.5996C68.8795 39.1385 70.4885 38.4837 71.9789 37.6338C73.4693 36.7843 74.827 35.7536 76.0529 34.5428C77.2784 33.3319 78.3321 31.9804 79.2141 30.4892C80.0956 28.9979 80.7749 27.3894 81.2511 25.6629ZM122.2 39.1655C122.306 38.8856 122.359 38.5917 122.359 38.2843V7.72766C122.359 7.40263 122.306 7.11342 122.2 6.86003C122.095 6.60717 121.918 6.3813 121.672 6.18244C121.477 5.98357 121.248 5.85688 120.984 5.80288C120.719 5.74836 120.49 5.72136 120.296 5.72136H116.354C116.001 5.72136 115.728 5.74421 115.534 5.78886C115.34 5.83455 115.177 5.92438 115.045 6.06042C114.913 6.19594 114.789 6.40363 114.674 6.68401C114.559 6.9644 114.414 7.32993 114.238 7.78218L113.471 10.2496C112.995 9.54445 112.439 8.88918 111.804 8.28324C111.169 7.67782 110.459 7.15807 109.674 6.72451C108.89 6.29096 108.025 5.94723 107.082 5.69436C106.139 5.4415 105.12 5.3148 104.027 5.3148C101.628 5.3148 99.3798 5.77121 97.281 6.68401C95.1822 7.59682 93.3569 8.85283 91.8052 10.4526C90.253 12.0523 89.0275 13.9325 88.1278 16.0919C87.2286 18.2524 86.7788 20.589 86.7788 23.101C86.7788 24.7641 86.9814 26.3592 87.3872 27.8862C87.793 29.4143 88.3705 30.8375 89.1202 32.1569C89.8695 33.4763 90.7641 34.6741 91.8052 35.7494C92.8458 36.8253 94.0048 37.7469 95.284 38.5149C96.5621 39.2833 97.9381 39.8752 99.4107 40.2906C100.883 40.7065 102.422 40.9147 104.027 40.9147C104.926 40.9147 105.794 40.8015 106.632 40.5757C107.47 40.3493 108.255 40.0518 108.987 39.681C109.718 39.3103 110.389 38.8903 110.997 38.4198C111.606 37.9505 112.148 37.4712 112.624 36.9831L112.968 38.2028C113.074 38.5107 113.175 38.7952 113.272 39.0569C113.369 39.3191 113.488 39.5409 113.629 39.7215C113.77 39.9022 113.956 40.0424 114.185 40.1416C114.414 40.2413 114.714 40.2906 115.084 40.2906H120.296C120.49 40.2906 120.719 40.2636 120.984 40.2096C121.248 40.1551 121.477 40.0289 121.672 39.8301C121.918 39.667 122.095 39.4458 122.2 39.1655ZM96.3019 23.1008C96.3019 24.2934 96.4822 25.4098 96.8439 26.4493C97.2056 27.4888 97.7214 28.3881 98.3916 29.1472C99.0618 29.9063 99.8688 30.5076 100.812 30.95C101.755 31.3934 102.8 31.614 103.947 31.614C105.128 31.614 106.226 31.3934 107.24 30.95C108.255 30.5076 109.136 29.9063 109.886 29.1472C110.635 28.3881 111.222 27.4888 111.645 26.4493C112.068 25.4098 112.28 24.2934 112.28 23.1008C112.28 21.9439 112.068 20.8411 111.645 19.7928C111.222 18.745 110.635 17.8228 109.886 17.0273C109.136 16.2319 108.255 15.6041 107.24 15.1431C106.226 14.682 105.128 14.4514 103.947 14.4514C102.8 14.4514 101.755 14.682 100.812 15.1431C99.8688 15.6041 99.0618 16.2319 98.3916 17.0273C97.7214 17.8228 97.2056 18.745 96.8439 19.7928C96.4822 20.8411 96.3019 21.9439 96.3019 23.1008ZM138.84 38.4923V47.1302C138.84 47.6105 138.46 47.9999 137.991 47.9999H129.557C129.088 47.9999 128.708 47.6105 128.708 47.1302V7.72743C128.708 7.36605 128.774 7.06801 128.907 6.8328C129.039 6.59811 129.202 6.38107 129.396 6.1822C129.625 5.98334 129.863 5.85665 130.11 5.80265C130.357 5.74813 130.595 5.72113 130.825 5.72113H134.819C135.154 5.72113 135.432 5.77565 135.652 5.88417C135.873 5.99217 136.053 6.1417 136.194 6.33122C136.336 6.52126 136.454 6.73778 136.552 6.98182C136.648 7.22585 136.741 7.49274 136.83 7.78195L137.425 9.54162C137.647 10.1969 138.49 10.3376 138.901 9.78721C139.079 9.54992 139.257 9.31056 139.435 9.06964C139.938 8.39204 140.533 7.77728 141.221 7.22585C141.909 6.67443 142.729 6.21855 143.681 5.85665C144.633 5.49526 145.797 5.31457 147.173 5.31457C149.589 5.31457 151.815 5.77097 153.852 6.68378C155.889 7.59658 157.644 8.8526 159.117 10.4523C160.589 12.0521 161.74 13.9322 162.569 16.0922C163.398 18.2522 163.812 20.5887 163.812 23.1008C163.812 25.5952 163.398 27.927 162.569 30.0958C161.74 32.2652 160.589 34.1495 159.117 35.7492C157.644 37.349 155.889 38.6096 153.852 39.5318C151.815 40.4534 149.589 40.9145 147.173 40.9145C146.026 40.9145 145.039 40.7743 144.21 40.4939C143.381 40.2141 142.645 39.848 142.001 39.3963C141.357 38.9445 140.789 38.4471 140.295 37.9045C139.775 37.3329 138.84 37.7103 138.84 38.4923ZM138.101 22.6941C138.153 21.5736 138.414 20.5159 138.881 19.5216C139.348 18.5278 139.957 17.6643 140.707 16.9322C141.456 16.2006 142.329 15.6222 143.325 15.1975C144.322 14.7727 145.376 14.5598 146.486 14.5598C147.615 14.5598 148.647 14.7862 149.582 15.238C150.516 15.6897 151.318 16.3045 151.989 17.0812C152.659 17.859 153.18 18.7672 153.55 19.8061C153.92 20.8462 154.105 21.9443 154.105 23.1006C154.105 24.2938 153.92 25.4149 153.55 26.4627C153.18 27.5115 152.659 28.4196 151.989 29.1876C151.318 29.956 150.516 30.5661 149.582 31.0179C148.647 31.4696 147.615 31.6955 146.486 31.6955C145.34 31.6955 144.255 31.4696 143.233 31.0179C142.21 30.5661 141.319 29.956 140.561 29.1876C139.802 28.4196 139.203 27.5115 138.762 26.4627C138.321 25.4149 138.101 24.2938 138.101 23.1006V22.6941ZM179.234 38.4663V47.1406C179.234 47.6152 178.859 47.9999 178.396 47.9999H169.941C169.478 47.9999 169.103 47.6152 169.103 47.1406V7.72743C169.103 7.36605 169.169 7.06801 169.301 6.8328C169.433 6.59811 169.596 6.38107 169.79 6.1822C170.019 5.98334 170.258 5.85665 170.505 5.80265C170.751 5.74813 170.99 5.72113 171.219 5.72113H175.214C175.548 5.72113 175.826 5.77565 176.047 5.88417C176.267 5.99217 176.448 6.1417 176.589 6.33122C176.73 6.52126 176.849 6.73778 176.946 6.98182C177.043 7.22585 177.136 7.49274 177.224 7.78195L177.826 9.55979C178.045 10.2073 178.878 10.3459 179.285 9.80175C179.465 9.55979 179.647 9.31575 179.83 9.06964C180.332 8.39204 180.927 7.77728 181.615 7.22585C182.303 6.67443 183.123 6.21855 184.075 5.85665C185.028 5.49526 186.192 5.31457 187.567 5.31457C189.983 5.31457 192.21 5.77097 194.247 6.68378C196.284 7.59658 198.039 8.8526 199.511 10.4523C200.984 12.0521 202.135 13.9322 202.963 16.0922C203.792 18.2522 204.207 20.5887 204.207 23.1008C204.207 25.5952 203.792 27.927 202.963 30.0958C202.135 32.2652 200.984 34.1495 199.511 35.7492C198.039 37.349 196.284 38.6096 194.247 39.5318C192.21 40.4534 189.983 40.9145 187.567 40.9145C186.421 40.9145 185.433 40.7743 184.605 40.4939C183.776 40.2141 183.039 39.848 182.396 39.3963C181.752 38.9445 181.183 38.4471 180.689 37.9045C180.684 37.8993 180.679 37.8936 180.675 37.8884C180.159 37.322 179.234 37.6922 179.234 38.4663ZM178.493 22.6941C178.546 21.5736 178.807 20.5159 179.274 19.5216C179.741 18.5278 180.35 17.6643 181.099 16.9322C181.849 16.2006 182.721 15.6222 183.718 15.1975C184.714 14.7727 185.768 14.5598 186.879 14.5598C188.008 14.5598 189.039 14.7862 189.974 15.238C190.909 15.6897 191.711 16.3045 192.382 17.0812C193.051 17.859 193.572 18.7672 193.943 19.8061C194.313 20.8462 194.498 21.9443 194.498 23.1006C194.498 24.2938 194.313 25.4149 193.943 26.4627C193.572 27.5115 193.051 28.4196 192.382 29.1876C191.711 29.956 190.909 30.5661 189.974 31.0179C189.039 31.4696 188.008 31.6955 186.879 31.6955C185.733 31.6955 184.648 31.4696 183.625 31.0179C182.602 30.5661 181.712 29.956 180.953 29.1876C180.195 28.4196 179.595 27.5115 179.155 26.4627C178.714 25.4149 178.493 24.2938 178.493 23.1006V22.6941ZM215.965 46.882L218.377 40.4592C218.45 40.2639 218.448 40.0469 218.371 39.8532L205.873 8.45957C205.59 7.7368 205.586 7.11736 205.859 6.60228C206.133 6.08721 206.736 5.82967 207.671 5.82967H214.206C214.646 5.82967 215.008 5.96986 215.29 6.24973C215.572 6.53011 215.784 6.87799 215.925 7.29338L222.646 26.8891C222.899 27.6243 223.914 27.6207 224.162 26.8839L230.739 7.29338C230.933 6.71548 231.18 6.32709 231.48 6.12771C231.779 5.92936 232.194 5.82967 232.723 5.82967H239.522C240.015 5.82967 240.403 5.89717 240.686 6.03269C240.968 6.16821 241.166 6.34942 241.281 6.57528C241.396 6.80115 241.435 7.05453 241.4 7.3344C241.364 7.61478 241.294 7.88997 241.188 8.16101C240.518 9.86045 239.786 11.7177 238.993 13.7329C238.199 15.7485 237.374 17.8452 236.52 20.0233C235.664 22.2015 234.795 24.416 233.914 26.6663C233.032 28.9167 232.171 31.126 231.335 33.2953C230.497 35.4642 229.69 37.5478 228.914 39.5448C228.137 41.5418 227.428 43.3767 226.784 45.0491C226.45 45.9163 226.141 46.7231 225.853 47.4791C225.733 47.7943 225.437 47.9999 225.106 47.9999H216.714C216.151 47.9999 215.763 47.421 215.965 46.882Z" fill="#1F2431"/>
<g id="Symbol">
<path id="Oval" fill-rule="evenodd" clip-rule="evenodd" d="M5.70265 17.2803C8.85214 17.2803 11.4053 14.7014 11.4053 11.5203C11.4053 8.3391 8.85214 5.76025 5.70265 5.76025C2.55317 5.76025 0 8.3391 0 11.5203C0 14.7014 2.55317 17.2803 5.70265 17.2803Z" fill="#315EFB"/>
<path id="Oval_2" fill-rule="evenodd" clip-rule="evenodd" d="M24.7119 36.48C27.8614 36.48 30.4146 33.9011 30.4146 30.72C30.4146 27.5388 27.8614 24.96 24.7119 24.96C21.5624 24.96 19.0093 27.5388 19.0093 30.72C19.0093 33.9011 21.5624 36.48 24.7119 36.48Z" fill="#315EFB"/>
<path id="Oval_3" fill-rule="evenodd" clip-rule="evenodd" d="M24.5662 7.68068C21.3359 7.68068 18.7173 10.3257 18.7173 13.5884C18.7173 16.8511 21.3359 19.4961 24.5662 19.4961C27.7964 19.4961 30.415 16.8511 30.415 13.5884C30.415 10.3257 27.7964 7.68068 24.5662 7.68068Z" fill="#315EFB"/>
<path id="Oval_4" fill-rule="evenodd" clip-rule="evenodd" d="M5.84985 26.585C2.61961 26.585 0.000977234 29.2299 0.000977234 32.4927C0.000977234 35.7554 2.61961 38.4004 5.84985 38.4004C9.0801 38.4004 11.6987 35.7554 11.6987 32.4927C11.6987 29.2299 9.0801 26.585 5.84985 26.585Z" fill="#315EFB"/>
</g>
</g>
</svg>
